<svg width="40" height="40" viewBox="0 0 40 40" fill="none" xmlns="http://www.w3.org/2000/svg">
<g clip-path="url(#clip0_825_613)">
<mask id="mask0_825_613" style="mask-type:alpha" maskUnits="userSpaceOnUse" x="0" y="0" width="40" height="40">
<path d="M31.968 0H7.992C3.57814 0 0 3.57814 0 7.992V31.968C0 36.3819 3.57814 39.96 7.992 39.96H31.968C36.3819 39.96 39.96 36.3819 39.96 31.968V7.992C39.96 3.57814 36.3819 0 31.968 0Z" fill="white"/>
</mask>
<g mask="url(#mask0_825_613)">
<path d="M31.968 0H7.992C3.57814 0 0 3.57814 0 7.992V31.968C0 36.3819 3.57814 39.96 7.992 39.96H31.968C36.3819 39.96 39.96 36.3819 39.96 31.968V7.992C39.96 3.57814 36.3819 0 31.968 0Z" fill="white"/>
<ellipse cx="20.5" cy="37.5" rx="30.5" ry="9.5" fill="url(#paint0_linear_825_613)"/>
</g>
<path d="M8.78018 37V32.1H10.1662V35.684H12.2382V37H8.78018ZM12.7313 37V32.1H14.1733V37H12.7313ZM14.871 37V32.1H16.537L17.356 34.571V32.1H18.567V37H16.964L16.082 34.34V37H14.871ZM21.6745 37L20.6525 34.76V37H19.2665V32.1H20.6525V34.025L21.7165 32.1H23.2915L21.9825 34.347L23.2355 37H21.6745ZM23.5868 37V32.1H26.8278V33.262H24.9728V33.983H26.3868V35.033H24.9728V35.81H26.8768V37H23.5868ZM27.4696 37V32.1H29.4996C30.9136 32.1 31.2286 32.562 31.2286 33.388V33.633C31.2286 34.228 31.0466 34.431 30.4516 34.459V34.529C31.0606 34.571 31.2496 34.886 31.2496 35.418V36.447C31.2496 36.734 31.2776 36.832 31.3966 36.958V37H29.9126C29.8706 36.888 29.8496 36.755 29.8496 36.552V35.67C29.8496 35.313 29.7586 35.166 29.3946 35.166H28.8556V37H27.4696ZM28.8556 34.123H29.3946C29.7726 34.123 29.8846 34.004 29.8846 33.745V33.605C29.8846 33.325 29.7726 33.199 29.3946 33.199H28.8556V34.123Z" fill="white"/>
<path fill-rule="evenodd" clip-rule="evenodd" d="M13.1928 8.53673C15.1455 6.58411 18.3105 6.58411 20.2631 8.53673C20.6184 8.892 20.9083 9.28763 21.1342 9.70861L15.4633 15.1393C15.0208 15.5629 14.8806 16.2133 15.1088 16.7818C15.3372 17.3502 15.8879 17.7233 16.5005 17.7233H16.8227L15.686 20.1842L14.6069 21.2643L14.4204 21.441C12.4576 23.2147 9.42732 23.156 7.53561 21.2643C5.6439 19.3726 5.58517 16.3423 7.35885 14.3795L7.53561 14.193L13.1928 8.53673ZM17.435 11.3649C17.0445 10.9743 16.4115 10.9743 16.021 11.3649L10.3637 17.0211C9.97321 17.4116 9.97321 18.0456 10.3637 18.4361C10.7543 18.8267 11.3882 18.8267 11.7788 18.4361L17.435 12.7789C17.8255 12.3884 17.8255 11.7554 17.435 11.3649Z" fill="url(#paint1_linear_825_613)"/>
<path d="M22.1923 4.53466C24.1449 2.58215 27.311 2.58224 29.2636 4.53466C31.2162 6.48727 31.2162 9.65333 29.2636 11.606L23.6064 17.2632L23.4198 17.4399C23.15 17.6838 22.8591 17.8914 22.5546 18.0659L25.5605 15.061C25.9893 14.6321 26.1176 13.9867 25.8857 13.4263C25.6535 12.8659 25.1065 12.5006 24.4999 12.5005H23.8339L24.2948 10.9175L26.4355 8.77783C26.8258 8.3874 26.8257 7.7543 26.4355 7.36376C26.045 6.97325 25.4119 6.97328 25.0214 7.36376L23.706 8.67822C23.1372 8.37422 22.4333 8.46643 21.9628 8.9165L15.4628 15.1392C15.412 15.1878 15.3649 15.2393 15.3222 15.2935C14.7767 13.6346 15.1224 11.7471 16.3593 10.3784L16.536 10.1919L22.1923 4.53466Z" fill="url(#paint2_linear_825_613)"/>
<path fill-rule="evenodd" clip-rule="evenodd" d="M25.1924 11.5348C27.145 9.58216 30.3111 9.58216 32.2637 11.5348C34.2162 13.4874 34.2163 16.6535 32.2637 18.6061L26.6064 24.2623L26.4199 24.4391C24.4572 26.2127 21.4268 26.154 19.5352 24.2623C18.9637 23.6908 18.5601 23.015 18.3232 22.2965L25.5605 15.0602C25.9895 14.6312 26.1178 13.9859 25.8857 13.4254C25.6535 12.865 25.1066 12.4996 24.5 12.4996H24.2275L25.1924 11.5348ZM29.4355 14.3629C29.045 13.9724 28.411 13.9724 28.0205 14.3629L22.3643 20.0201C21.9737 20.4107 21.9737 21.0437 22.3643 21.4342C22.7548 21.8246 23.3878 21.8247 23.7783 21.4342L29.4355 15.777C29.8257 15.3865 29.8258 14.7533 29.4355 14.3629Z" fill="url(#paint3_linear_825_613)"/>
<path d="M17.3996 15.361L21.6516 11.2908C22.0212 10.937 22.6206 11.3008 22.4773 11.792L21.908 13.744C21.8707 13.872 21.9667 14 22.1 14H23.2929C23.7383 14 23.9614 14.5386 23.6464 14.8536L18.4823 20.0177C18.0876 20.4124 17.4409 19.9615 17.6748 19.4546L19.0357 16.506C19.0968 16.3735 19 16.2222 18.8541 16.2222H17.7454C17.2946 16.2222 17.074 15.6727 17.3996 15.361Z" fill="url(#paint4_linear_825_613)"/>
</g>
<defs>
<linearGradient id="paint0_linear_825_613" x1="2.81884" y1="34" x2="37.744" y2="33.2183" gradientUnits="userSpaceOnUse">
<stop stop-color="#2969FF"/>
<stop offset="1" stop-color="#2EFFC2"/>
</linearGradient>
<linearGradient id="paint1_linear_825_613" x1="6" y1="17.0014" x2="20.9998" y2="10.0011" gradientUnits="userSpaceOnUse">
<stop stop-color="#2A69FF"/>
<stop offset="1" stop-color="#3EB5FF"/>
</linearGradient>
<linearGradient id="paint2_linear_825_613" x1="18.9997" y1="17.999" x2="30.5004" y2="8.99859" gradientUnits="userSpaceOnUse">
<stop stop-color="#2CA4E7"/>
<stop offset="1" stop-color="#2DDAD1"/>
</linearGradient>
<linearGradient id="paint3_linear_825_613" x1="19.5" y1="22" x2="34" y2="16" gradientUnits="userSpaceOnUse">
<stop stop-color="#2DD8D2"/>
<stop offset="1" stop-color="#2FFFC2"/>
</linearGradient>
<linearGradient id="paint4_linear_825_613" x1="17.5" y1="16" x2="24" y2="14.5" gradientUnits="userSpaceOnUse">
<stop stop-color="#2A69FF"/>
<stop offset="1" stop-color="#2FFFC2"/>
</linearGradient>
<clipPath id="clip0_825_613">
<rect width="40" height="40" fill="white"/>
</clipPath>
</defs>
</svg>
